<?xml version="1.0" standalone="no"?>
<!DOCTYPE svg PUBLIC "-//W3C//DTD SVG 1.1//EN" "http://www.w3.org/Graphics/SVG/1.1/DTD/svg11.dtd" >
<svg>
<metadata>
Created by FontForge 20110222 at Sat Sep  6 00:24:21 2014
 By Orthosie Webhosting
Font made by Alvaro Thomaz
</metadata>
<defs>
<font id="RegencieLight" horiz-adv-x="108" >
  <font-face 
    font-family="RegencieLight"
    font-weight="300"
    font-stretch="normal"
    units-per-em="1000"
    panose-1="2 0 3 3 0 0 0 0 0 0"
    ascent="800"
    descent="-200"
    x-height="510"
    cap-height="702"
    bbox="-151 -171.667 1030 996"
    underline-thickness="50"
    underline-position="-100"
    unicode-range="U+0001-02DA"
  />
<missing-glyph horiz-adv-x="364" 
d="M33 0v666h265v-666h-265zM66 33h199v600h-199v-600z" />
    <glyph glyph-name=".notdef" horiz-adv-x="364" 
d="M33 0v666h265v-666h-265zM66 33h199v600h-199v-600z" />
    <glyph glyph-name="uni0000" 
 />
    <glyph glyph-name="uni0000" 
 />
    <glyph glyph-name="uni000D" unicode="&#xd;" 
 />
    <glyph glyph-name="uni0001" 
 />
    <glyph glyph-name="uni0002" 
 />
    <glyph glyph-name="uni0003" 
 />
    <glyph glyph-name="uni0004" 
 />
    <glyph glyph-name="uni0005" 
 />
    <glyph glyph-name="uni0006" 
 />
    <glyph glyph-name="uni0007" 
 />
    <glyph glyph-name="uni0008" 
 />
    <glyph glyph-name="uni0009" unicode="&#x9;" 
 />
    <glyph glyph-name="uni000A" unicode="&#xa;" 
 />
    <glyph glyph-name="uni000B" 
 />
    <glyph glyph-name="uni000C" 
 />
    <glyph glyph-name="uni000E" 
 />
    <glyph glyph-name="uni000F" 
 />
    <glyph glyph-name="uni0010" 
 />
    <glyph glyph-name="uni0011" 
 />
    <glyph glyph-name="uni0012" 
 />
    <glyph glyph-name="uni0013" 
 />
    <glyph glyph-name="uni0014" 
 />
    <glyph glyph-name="uni0015" 
 />
    <glyph glyph-name="uni0016" 
 />
    <glyph glyph-name="uni0017" 
 />
    <glyph glyph-name="uni0018" 
 />
    <glyph glyph-name="uni0019" 
 />
    <glyph glyph-name="uni001A" 
 />
    <glyph glyph-name="uni001B" 
 />
    <glyph glyph-name="uni001C" 
 />
    <glyph glyph-name="uni001D" 
 />
    <glyph glyph-name="uni001E" 
 />
    <glyph glyph-name="uni001F" 
 />
    <glyph glyph-name="space" unicode=" " horiz-adv-x="310" 
 />
    <glyph glyph-name="exclam" unicode="!" horiz-adv-x="157" 
d="M66 183l-15 519h58l-16 -519h-27zM45 85h67v-85h-67v85z" />
    <glyph glyph-name="quotedbl" unicode="&#x22;" horiz-adv-x="346" 
d="M230 702h72l-74 -256zM50 702h72l-74 -256z" />
    <glyph glyph-name="numbersign" unicode="#" horiz-adv-x="685" 
d="M426 234l41 236h-207l-41 -236h207zM163 187h-121v47h129l41 236h-130v47h138l31 183h48l-31 -183h207l31 183h48l-31 -183h120v-47h-128l-41 -236h129v-47h-137l-32 -187h-48l32 187h-207l-32 -187h-48z" />
    <glyph glyph-name="dollar" unicode="$" horiz-adv-x="598" 
d="M300 759h50v-50q26 -2 50.5 -8.5t41 -13.5t34 -18t25.5 -17t19.5 -16.5t12.5 -11.5l-32 -41q-23 25 -64 45t-87 29v-286q69 -17 117.5 -42t71.5 -70q23 -47 16 -93.5t-32.5 -84t-71.5 -62.5t-101 -30v-76h-50v76q-42 2 -77 10t-63.5 22.5t-45.5 25t-42 29.5t-32 24l37 39
q100 -98 223 -101v287q-118 25 -175.5 73.5t-57.5 123.5q0 80 59.5 131t168.5 57h5v49zM350 315v-277q71 5 105 43q68 77 37.5 141t-142.5 93zM300 381v282q-75 1 -126 -34.5t-52 -106.5q0 -21 4.5 -38.5t12 -30t22.5 -23t27.5 -17t34 -13t36.5 -10t41 -9.5z" />
    <glyph glyph-name="percent" unicode="%" horiz-adv-x="798" 
d="M616 700h54l-514 -700h-54zM606 77q22 0 40.5 8.5t32 22.5t21 32.5t7.5 38.5v2q0 20 -7.5 38.5t-21 32.5t-32 22.5t-40.5 8.5t-40.5 -8.5t-32 -22.5t-21 -32.5t-7.5 -38.5v-2q0 -20 7.5 -38.5t21 -32.5t32 -22.5t40.5 -8.5zM606 33q-30 0 -57 12t-48 32t-33.5 46.5
t-12.5 55.5v2q0 29 12.5 55.5t33.5 46.5t48 32t57 12t57 -12t48 -32t33.5 -46.5t12.5 -55.5v-2q0 -29 -12.5 -55.5t-33.5 -46.5t-48 -32t-57 -12zM195 426q22 0 40.5 8.5t32 22.5t21 32.5t7.5 38.5v2q0 20 -7.5 38.5t-21 32.5t-32 22.5t-40.5 8.5t-40.5 -8.5t-32 -22.5
t-21 -32.5t-7.5 -38.5v-2q0 -20 7.5 -38.5t21 -32.5t32 -22.5t40.5 -8.5zM195 382q-30 0 -57 12t-48 32t-33.5 46.5t-12.5 55.5v2q0 29 12.5 55.5t33.5 46.5t48 32t57 12t57 -12t48 -32t33.5 -46.5t12.5 -55.5v-2q0 -29 -12.5 -55.5t-33.5 -46.5t-48 -32t-57 -12z" />
    <glyph glyph-name="ampersand" unicode="&#x26;" horiz-adv-x="713" 
d="M495 110q-3 -5 -9.5 -13t-29 -29.5t-47.5 -37.5t-65 -29.5t-83 -13.5q-54 0 -98 19.5t-69 49.5t-38 61t-13 59q0 48 19 87t45.5 61.5t53.5 38t46 21.5l19 5l-8.5 8.5t-19.5 23t-24.5 36t-19.5 47.5t-9 57q0 49 31.5 85t72 52t79.5 16q28 0 57 -12t53 -34t36.5 -58.5
t6.5 -81.5q-4 -27 -22.5 -52.5t-43 -43t-48.5 -30.5t-41 -19l-16 -7l184 -188q31 40 57 92q12 24 20.5 44t11.5 28l3 8l48 -22q-44 -90 -63 -120l-42 -66l144 -152h-72zM331 280l-77 78q-55 -14 -94 -46t-53 -70.5t-11.5 -77.5t27 -70.5t64.5 -46.5q32 -11 63 -13t57.5 5.5
t48 17t43 27.5t34.5 30t30 30zM278 410q12 4 23 8t32.5 14.5t38 21.5t33 29t23.5 37.5t4.5 46t-19.5 54.5q-20 34 -53.5 44.5t-65.5 0t-58.5 -33.5t-35.5 -51q-15 -49 35 -119q9 -14 20 -26.5t17 -19.5z" />
    <glyph glyph-name="quotesingle" unicode="'" horiz-adv-x="166" 
d="M50 702h72l-74 -256z" />
    <glyph glyph-name="parenleft" unicode="(" horiz-adv-x="383" 
d="M322 716l20 -34q-5 -3 -13.5 -8t-34 -23.5t-49 -39t-51.5 -55t-48.5 -71t-34.5 -86.5t-14 -102q0 -72 25 -140t61.5 -114t72.5 -81.5t61 -51.5l25 -17l-20 -33l-16 8t-39 24t-55 41.5t-58 60.5t-55 80t-39 101t-16 123q0 44 8 86t23.5 76t33 64t41 55.5t42.5 44.5
t43.5 36t37.5 26t30.5 19t18.5 11z" />
    <glyph glyph-name="parenright" unicode=")" horiz-adv-x="383" 
d="M62 716l-21 -34q5 -3 14 -8t34.5 -23.5t48.5 -39t51.5 -55t49 -71t34 -86.5t13.5 -102t-13.5 -103t-35 -90t-47.5 -74t-52 -59.5t-47.5 -42.5t-35.5 -26l-13 -9l20 -33q5 3 15 8t39 24t55.5 41.5t58.5 60.5t55 80t39 101t16 123q0 44 -8.5 86t-23.5 76t-32.5 64t-41 55.5
t-43 44.5t-43.5 36t-37.5 26t-31 19t-17.5 11z" />
    <glyph glyph-name="asterisk" unicode="*" horiz-adv-x="367" 
d="M160 556l-115 52l21 40l101 -74l-3 128h40l-10 -123l107 67l22 -34l-113 -57l113 -58l-22 -37l-103 75l9 -129h-43l6 130l-103 -75l-21 34z" />
    <glyph glyph-name="plus" unicode="+" horiz-adv-x="570" 
d="M256 593h52v-216h218v-52h-218v-214h-52v214h-212v52h212v216z" />
    <glyph glyph-name="comma" unicode="," horiz-adv-x="186" 
d="M74 85h66v-85q0 -32 -18 -63q-5 -7 -11 -13.5t-14 -11.5t-13.5 -7.5t-14.5 -6.5t-12 -5l-12 24q36 19 47 39q10 17 9 44h-27v85z" />
    <glyph glyph-name="hyphen" unicode="-" horiz-adv-x="366" 
d="M49 325h268v-56h-268v56z" />
    <glyph glyph-name="period" unicode="." horiz-adv-x="162" 
d="M48 85h67v-85h-67v85z" />
    <glyph glyph-name="slash" unicode="/" horiz-adv-x="601" 
d="M512 798h49l-472 -926h-49z" />
    <glyph glyph-name="zero" unicode="0" horiz-adv-x="668" 
d="M335 35q54 0 97.5 26t74 69.5t47 100t16.5 117.5v2q0 61 -16.5 118t-47.5 100.5t-75 70t-98 26.5t-97.5 -26t-74 -69.5t-47 -100t-16.5 -117.5v-2q0 -61 16.5 -117.5t47.5 -100.5t75 -70.5t98 -26.5zM333 -12q-67 0 -120.5 29t-91 78.5t-57.5 115t-20 137.5v2
q0 72 20.5 138t58.5 115.5t91.5 79t120.5 29.5t120.5 -29t91 -78.5t57.5 -115t20 -137.5v-2q0 -72 -20.5 -138t-58.5 -115.5t-91.5 -79t-120.5 -29.5z" />
    <glyph glyph-name="one" unicode="1" horiz-adv-x="290" 
d="M189 651l-135 -46l-14 41l160 59h40v-705h-51v651z" />
    <glyph glyph-name="two" unicode="2" horiz-adv-x="563" 
d="M42 39l261 236q43 39 72.5 71t48 60t26.5 54t8 54q0 34 -13 62t-34.5 47.5t-50.5 30t-60 10.5q-67 0 -114 -33.5t-91 -96.5l-39 26q23 35 47.5 62.5t54 47t65.5 30t82 10.5q45 0 83 -14.5t65.5 -40.5t43.5 -61t16 -76v-2q0 -36 -10 -67.5t-31.5 -63t-54.5 -65.5t-79 -76
l-214 -194h396v-50h-478v39z" />
    <glyph glyph-name="three" unicode="3" horiz-adv-x="543" 
d="M54 702v-53h365l-240 -275l13 -30q45 0 79 -4t67.5 -14.5t55.5 -29t36.5 -49.5t15.5 -73q-12 -128 -176 -142q-40 1 -75 10.5t-57 21.5t-42.5 30t-29 27.5t-18.5 24.5q-3 3 -4 5v-66q3 -3 15.5 -14t16.5 -14t16.5 -12.5t18.5 -13t19 -11.5t22.5 -11t24 -8.5t28.5 -7.5
l31.5 -4.5t36.5 -2.5q212 17 226 186q4 95 -55.5 151.5t-187.5 71.5l238 270v37h-440z" />
    <glyph glyph-name="four" unicode="4" horiz-adv-x="646" 
d="M489 172v-172h-48v172h-379l-21 36l400 494h48v-486h116v-44h-116zM441 216v406l-336 -406h336z" />
    <glyph glyph-name="five" unicode="5" horiz-adv-x="534" 
d="M44 67q49 -39 96.5 -60t107.5 -20q46 4 80 13.5t67 30t56.5 57t36.5 89.5q5 17 2.5 40.5t-7 49t-20 51.5t-36 47.5t-54.5 37.5t-77 22q-92 7 -202 -33l16 258h350v52h-394l-19 -335l39 -33q61 39 136 44q51 -1 90 -11.5t61 -26.5t37.5 -37t19 -42.5t6 -43t-1.5 -39.5
q-2 -13 -13 -34t-32 -45t-58 -42.5t-83 -21.5q-110 -4 -204 100v-68z" />
    <glyph glyph-name="six" unicode="6" horiz-adv-x="605" 
d="M499 595q-9 11 -27.5 25.5t-59 30.5t-85.5 16q-48 0 -86 -21t-61.5 -51.5t-40 -73t-24 -78t-11.5 -74t-4 -53v-23.5q4 10 10 22.5t23.5 35t40 39t61 30t84.5 13.5q45 0 82.5 -12.5t60 -27t43 -39t27 -36.5t16.5 -31q13 -26 14 -63.5t-13.5 -79t-42 -77t-76.5 -58.5
t-112 -23t-113.5 23t-80.5 62t-50 87.5t-25.5 101t-3.5 101t12 89.5q30 121 101 191.5t173 70.5q45 0 103 -20t65 -30v-67zM499 595zM499 662zM401 369q-31 11 -69 16h-16.5t-24.5 -0.5t-29 -4.5t-34 -11t-34.5 -21.5t-36.5 -34.5q-21 -26 -30 -62t-2 -73.5t28 -70t64.5 -53
t102.5 -20.5q49 0 90 22.5t63.5 58.5t31 77t-6 81.5t-50.5 68.5q-20 16 -47 27z" />
    <glyph glyph-name="seven" unicode="7" horiz-adv-x="541" 
d="M129 0l320 650h-406v52h456v-46l-312 -656h-58z" />
    <glyph glyph-name="eight" unicode="8" horiz-adv-x="607" 
d="M220 349q-6 -5 -33 -25.5t-42.5 -35.5t-30.5 -43.5t-15 -60.5q0 -53 34.5 -87.5t79.5 -47t99 -12.5q76 0 138.5 42.5t62.5 104.5q0 67 -61.5 109t-139.5 42q-52 0 -92 14zM250 388q17 -5 70 -12t58 -3q35 24 48 34t31.5 29.5t24.5 40.5t6 50q0 59 -53 97.5t-128 38.5
t-129.5 -38.5t-54.5 -97.5q0 -47 36 -85.5t91 -53.5zM70 516q0 80 69.5 137t168.5 57t168.5 -57t69.5 -137q0 -53 -37.5 -92.5t-96.5 -59.5q67 -25 110 -73t43 -105q0 -80 -75.5 -138.5t-174.5 -58.5q-108 0 -190 52.5t-82 144.5q0 56 44.5 103.5t112.5 72.5
q-60 20 -95 59.5t-35 94.5z" />
    <glyph glyph-name="nine" unicode="9" horiz-adv-x="605" 
d="M110 99q15 -15 33 -28t56 -26.5t78 -11.5q51 3 91 24.5t63.5 50.5t39.5 70t23 73.5t9.5 71t2 53.5t-0.5 29v2q-4 -11 -10 -23t-23.5 -34.5t-40 -39.5t-61.5 -30t-85 -13q-44 0 -82 12t-60 27t-42.5 39.5t-27.5 36.5t-17 31q-13 25 -13.5 63t14 79t41.5 77t76.5 59
t111.5 23q64 0 114 -23t80.5 -62t50 -87.5t25.5 -101t3.5 -101t-12.5 -89.5q-30 -121 -101 -191.5t-173 -70.5q-93 0 -163 46v65zM110 99zM110 34zM186 339q37 -19 86 -24h17t25 0.5t28.5 4.5t34 11t34.5 21.5t36 34.5q22 26 31 61.5t1.5 73.5t-28.5 70.5t-64.5 53
t-102.5 20.5q-48 0 -89 -22.5t-63.5 -59t-31 -77t6 -81.5t49.5 -68q14 -11 30 -19z" />
    <glyph glyph-name="colon" unicode=":" horiz-adv-x="161" 
d="M47 510h67v-85h-67v85zM47 85h67v-85h-67v85z" />
    <glyph glyph-name="semicolon" unicode=";" horiz-adv-x="189" 
d="M76 509h67v-85h-67v85zM72 85h66v-85q0 -32 -18 -63q-5 -7 -11 -13.5t-14 -11.5t-13.5 -7.5t-14.5 -6.5t-12 -5l-12 24q36 19 47 39q10 17 9 44h-27v85z" />
    <glyph glyph-name="less" unicode="&#x3c;" horiz-adv-x="553" 
d="M44 332v40l464 241v-54l-403 -206l403 -208v-54z" />
    <glyph glyph-name="equal" unicode="=" horiz-adv-x="552" 
d="M49 265h454v-51h-454v51zM49 490h454v-51h-454v51z" />
    <glyph glyph-name="greater" unicode="&#x3e;" horiz-adv-x="553" 
d="M45 145l403 206l-403 208v54l464 -241v-40l-464 -241v54z" />
    <glyph glyph-name="question" unicode="?" horiz-adv-x="532" 
d="M218 85h67v-85h-67v85zM41 590q20 23 31 34t34.5 30t44.5 28.5t53.5 18t69.5 9.5q97 -3 154.5 -58.5t60.5 -141.5q-2 -46 -20 -82.5t-42 -57t-55 -35t-54 -19.5t-44 -7l-7 -125h-28l-17 167q21 -2 52 2.5t67.5 18.5t63 47t29.5 80q7 73 -43.5 117.5t-122.5 46.5
q-57 1 -106.5 -29.5t-83.5 -74.5z" />
    <glyph glyph-name="at" unicode="@" horiz-adv-x="962" 
d="M594 287q-1 -2 -1 -8v-9q0 -35 -1 -35l-1.5 -6.5t-5 -17t-10 -23t-19 -25t-28.5 -22.5t-42 -16.5t-57 -6.5q-43 0 -72 13.5t-40 33.5t-13.5 42.5t4 42t16.5 30.5q37 38 158 38h43t35.5 -0.5t33.5 -0.5v-30zM633 181v164q0 182 -181 182q-84 0 -153 -37l14 -37q1 1 9 6
t18.5 9t26.5 9.5t40.5 8.5t53.5 3q40 0 67.5 -14t39.5 -33.5t18 -39t6 -33.5l-1 -13h-150q-81 0 -131.5 -38t-50.5 -97q0 -62 44.5 -103.5t124.5 -41.5q18 0 35 3t30.5 8t26 11t22 13t18 14.5t14.5 13.5t10 11t6 8l2 3l7 10q12 -41 27 -54q1 -2 4 -5t13 -11t22 -14.5
t32 -11.5t42 -5q25 0 50 7.5t51 27.5t44 50t28 79t5 111q-6 76 -47 145.5t-101 117t-133 76t-143 28.5q-58 0 -117.5 -15.5t-117.5 -49t-104 -80.5t-75.5 -115t-33.5 -148q-5 -100 29 -188.5t95.5 -148t143.5 -94t172 -34.5q67 0 126 13.5t95.5 32.5t63.5 37.5t38 32.5
l12 13l-21 12q-5 -4 -14 -11.5t-39.5 -26.5t-64 -33.5t-86.5 -26.5t-107 -12q-61 0 -118.5 15.5t-111 50.5t-94 85t-64.5 124.5t-24 164.5q0 46 18.5 96.5t55.5 99t86.5 87.5t116 63t139.5 24q38 0 82 -11t93 -36t91 -61.5t76 -93.5t49 -126q12 -55 0 -103.5t-36.5 -83
t-59 -50t-67.5 -5.5q-64 20 -87 71z" />
    <glyph glyph-name="A" unicode="A" horiz-adv-x="776" 
d="M48 0l322 702h50l334 -702h-58l-90 198h-411l-93 -198h-54zM585 244l-190 403l-179 -403h369z" />
    <glyph glyph-name="B" unicode="B" horiz-adv-x="647" 
d="M100 504v-127h211q48 1 82.5 9t54.5 19t34 30t19 35t10 40q1 40 -11 68t-35.5 43.5t-50.5 22.5t-65 9h-249v-149zM100 328v-279h250q61 0 103.5 13.5t62.5 36t28.5 45.5t6.5 48q0 31 -10.5 54t-35.5 42.5t-70.5 29.5t-111.5 10h-223zM98 702h238q2 -1 18.5 -2t31 -2.5
t37 -6.5t41 -12t39 -20.5t34 -31t22.5 -44.5t9 -59q0 -121 -130 -166q14 -1 30.5 -4.5t42.5 -15t45.5 -28.5t34 -48t14.5 -72q0 -52 -24 -91t-63.5 -59.5t-81.5 -30t-87 -9.5h-251h-24h-25v702h40h9z" />
    <glyph glyph-name="C" unicode="C" horiz-adv-x="691" 
d="M644 609q-42 43 -100 71l-6 2q-65 30 -144 30q-80 0 -145 -29.5t-111 -79.5t-71.5 -115.5t-25.5 -137.5v-2q0 -72 25 -137t71 -114.5t110.5 -79t144.5 -29.5q79 0 144 30q4 1 8 3q58 28 100 72v82q-16 -26 -36 -49q-29 -30 -64 -51q-15 -8 -30 -15q-55 -25 -120 -25
t-120 25t-94.5 67.5t-62 100t-22.5 122.5v2q0 65 22 122t61.5 99.5t94 67t119.5 24.5t120 -25q17 -8 32 -17q35 -21 62 -51q31 -33 43 -52v84zM644 175z" />
    <glyph glyph-name="D" unicode="D" horiz-adv-x="702" 
d="M100 215v-166h194q69 0 127 25t96 66t64.5 93t26.5 107q0 69 -26 124.5t-58.5 90t-75.5 57.5t-84.5 32t-83.5 9h-180v-438zM658 362q0 -73 -23 -134t-60.5 -102.5t-86 -70.5t-98 -42t-97.5 -13h-195h-24h-25v702h40h9h162q174 0 286 -97.5t112 -242.5z" />
    <glyph glyph-name="E" unicode="E" horiz-adv-x="588" 
d="M98 49h351h95v-49h-495l2 702h493v-50h-446v-206v-31v-38h351h51v-49h-374h-28v-279z" />
    <glyph glyph-name="F" unicode="F" horiz-adv-x="585" 
d="M98 0v328h28h354v49h-31h-351v38v31v206h446v50h-493l-2 -702h49z" />
    <glyph glyph-name="G" unicode="G" horiz-adv-x="715" 
d="M644 609q-42 43 -100 71l-6 2q-65 30 -144 30q-80 0 -145 -29.5t-111 -79.5t-71.5 -115.5t-25.5 -137.5v-2q0 -72 25 -137t71 -114.5t110.5 -79t144.5 -29.5q79 0 144 30q4 1 8 3q84 40 123 81v5v77v179h-284v-49h233v-191q-21 -18 -72 -48q-15 -8 -30 -15
q-55 -25 -120 -25t-120 25t-94.5 67.5t-62 100t-22.5 122.5v2q0 65 22 122t61.5 99.5t94 67t119.5 24.5t120 -25q17 -8 32 -17q35 -21 62 -51q31 -33 43 -52v84z" />
    <glyph glyph-name="H" unicode="H" horiz-adv-x="647" 
d="M98 415v287h-49v-702h49v327h449v-327h49v415v287h-49v-325h-449v38z" />
    <glyph glyph-name="I" unicode="I" horiz-adv-x="149" 
d="M98 0h-49v702h49v-702z" />
    <glyph glyph-name="J" unicode="J" horiz-adv-x="460" 
d="M40 60q74 -71 170 -71q34 0 62.5 7.5t48 20.5t35 30t25 35.5t16 37t9 35t4 29.5t1.5 21v7v490h-49v-482v0v-9q-1 -16 -2.5 -33t-11 -44t-24.5 -47t-45 -35t-70 -15q-94 0 -169 103v-80z" />
    <glyph glyph-name="K" unicode="K" horiz-adv-x="664" 
d="M98 606v96h-49v-702h49v175l178 180l288 -355h66l-319 390l309 312h-71l-451 -463v367z" />
    <glyph glyph-name="L" unicode="L" horiz-adv-x="552" 
d="M98 48h412v-48h-412h-12h-37v702h49v-654z" />
    <glyph glyph-name="M" unicode="M" horiz-adv-x="757" 
d="M706 0h-49v616l-271 -410h-7l-281 409v-615h-49v702h49l285 -414l281 414h42v-702z" />
    <glyph glyph-name="N" unicode="N" horiz-adv-x="680" 
d="M98 0h-49v702h49l482 -603v603h49v-702h-33l-498 627v-627z" />
    <glyph glyph-name="O" unicode="O" horiz-adv-x="790" 
d="M394 35q65 0 119.5 24.5t94 67t61.5 99.5t22 122v2q0 65 -22.5 122.5t-62 100t-94.5 67.5t-120 25t-119.5 -24.5t-94 -67t-61.5 -99.5t-22 -122v-2q0 -65 22.5 -122.5t62 -100t94.5 -67.5t120 -25zM392 -12q-80 0 -144.5 29.5t-110.5 79t-71 114.5t-25 137v2
q0 72 25.5 137.5t71.5 115.5t111 79.5t145 29.5q79 0 144 -29.5t111 -79t71 -114.5t25 -137q1 -1 0 -2q0 -72 -25.5 -137.5t-71.5 -115.5t-111.5 -79.5t-144.5 -29.5z" />
    <glyph glyph-name="P" unicode="P" horiz-adv-x="605" 
d="M100 504v149h249q68 0 115 -49t47 -94t-9 -78t-30 -62t-61.5 -44.5t-99.5 -16.5h-211v195zM100 0v260h223q116 -1 178 66t62 184q0 44 -23.5 82t-59 61t-74 36t-70.5 13h-238h-9h-40v-702h51z" />
    <glyph glyph-name="Q" unicode="Q" horiz-adv-x="794" 
d="M392 -12q-80 0 -144.5 29.5t-110.5 79t-71 114.5t-25 137v2q0 72 25.5 137.5t71.5 115.5t111 79.5t145 29.5q79 0 144 -29.5t111 -79t71 -114.5t25 -137q1 -1 0 -2q0 -72 -25.5 -137.5t-71.5 -115.5q-26 -28 -58 -50q15 -3 30 0t23.5 8.5t36.5 10t70 3.5v-69h-263
q-45 -12 -95 -12zM394 35q65 0 119.5 24.5t94 67t61.5 99.5t22 122v2q0 65 -22.5 122.5t-62 100t-94.5 67.5t-120 25t-119.5 -24.5t-94 -67t-61.5 -99.5t-22 -122v-2q0 -65 22.5 -122.5t62 -100t94.5 -67.5t120 -25z" />
    <glyph glyph-name="R" unicode="R" horiz-adv-x="653" 
d="M100 504v149h249q79 0 134.5 -38.5t55.5 -104.5q0 -84 -54.5 -128t-173.5 -45h-211v167zM100 0v288h223h4h4l223 -288h65l-230 298q90 15 145.5 68t55.5 144q0 44 -18.5 79t-46.5 55.5t-64 34t-66.5 18.5t-58.5 5h-238h-9h-40v-702h51z" />
    <glyph glyph-name="S" unicode="S" horiz-adv-x="593" 
d="M122 483q-5 15 -5 39q1 72 52.5 107.5t126.5 33.5q58 -2 114.5 -25t85.5 -55l32 41q-1 1 -12.5 11t-19.5 16t-24.5 17t-33.5 18t-39.5 14t-50.5 9.5t-58 0.5q-109 -6 -168.5 -57t-59.5 -131q0 -78 62 -127.5t191 -73.5q130 -24 169 -91t-34 -149q-22 -25 -62.5 -36
t-82.5 -7q-129 -2 -233 101l-37 -39q6 -4 34 -25.5t45.5 -31.5t49.5 -25.5t71 -22.5t86 -7q48 0 91 15.5t72.5 42t48 61t18.5 73.5t-17 79q-14 26 -36.5 46t-53.5 33q-39 17 -60 22q-64 17 -67 17q-176 42 -195 106z" />
    <glyph glyph-name="T" unicode="T" horiz-adv-x="617" 
d="M333 0h-49v653h-247v49h247h49h244v-49h-244v-653z" />
    <glyph glyph-name="U" unicode="U" horiz-adv-x="667" 
d="M619 285v417h-49v-417v-4q1 -14 0.5 -25.5t-5 -38.5t-13 -48t-27 -47t-44 -43t-67 -29t-93.5 -12q-44 0 -80 11.5t-59 29.5t-40 42.5t-25.5 46.5t-13.5 46t-6 36.5t-1 22.5v429h-49v-429v-3q1 -14 2.5 -27t8.5 -43.5t17 -55.5t31 -55.5t47.5 -51.5t69 -35t93.5 -14
q63 0 113.5 14.5t81 36t53.5 53.5t33 58t15.5 57.5t6 45t0.5 28.5v4z" />
    <glyph glyph-name="V" unicode="V" horiz-adv-x="737" 
d="M35 702l306 -702h50l310 702h-58l-270 -642l-284 642h-54z" />
    <glyph glyph-name="W" unicode="W" horiz-adv-x="1066" 
d="M550 702h-35l-198 -623l-228 623h-54l250 -702h50l199 596l1 8l203 -604h50l242 702h-54l-214 -623z" />
    <glyph glyph-name="X" unicode="X" horiz-adv-x="699" 
d="M347 318l250 -318h68l-285 359l271 343h-68l-236 -301l-238 301h-62l268 -343l-282 -359h62z" />
    <glyph glyph-name="Y" unicode="Y" horiz-adv-x="721" 
d="M332 276l-298 426h62l264 -375l258 375h68l-302 -424v-278h-52v276z" />
    <glyph glyph-name="Z" unicode="Z" horiz-adv-x="635" 
d="M58 702h534v-34l-480 -622h479v-46h-553v27l481 626h-464z" />
    <glyph glyph-name="bracketleft" unicode="[" horiz-adv-x="364" 
d="M50 -125v31v759v37h54h217v-37h-217v-759h217v-37h-271v6z" />
    <glyph glyph-name="backslash" unicode="\" horiz-adv-x="601" 
d="M40 798h49l472 -926h-49z" />
    <glyph glyph-name="bracketright" unicode="]" horiz-adv-x="363" 
d="M313 -125v31v759v37h-54h-217v-37h217v-759h-217v-37h271v6z" />
    <glyph glyph-name="asciicircum" unicode="^" horiz-adv-x="330" 
d="M145 717h40l100 -122h-47l-74 68l-74 -68h-45z" />
    <glyph glyph-name="underscore" unicode="_" horiz-adv-x="709" 
d="M52 -116h604v-44h-604v44z" />
    <glyph glyph-name="grave" unicode="`" horiz-adv-x="240" 
d="M45 702l58 23l92 -126h-40z" />
    <glyph glyph-name="a" unicode="a" horiz-adv-x="520" 
d="M435 214v55q-18 0 -39.5 0.5t-42 0.5h-50.5q-65 0 -112.5 -8.5t-73.5 -36.5q-10 -10 -16.5 -28t-8.5 -39.5t5.5 -43t23 -39.5t46.5 -29.5t74 -11.5q29 0 53.5 5t42.5 13t33 18t24.5 21.5t16.5 23t11 22t6.5 18.5t3.5 12.5l1 4.5q1 0 2 42zM87 473q81 44 181 44
q213 0 213 -215v-302h-48v85l-3 -3q-2 -4 -7 -9.5t-11.5 -13t-16.5 -16t-21.5 -17t-26.5 -16t-31 -13t-36 -9t-41 -3.5q-94 0 -146.5 49t-52.5 122q0 70 59.5 114.5t155.5 44.5h177q0 117 -91 148q-28 9 -62.5 9t-63.5 -3.5t-48 -9.5t-31 -11.5t-21.5 -11.5t-10.5 -6z" />
    <glyph glyph-name="b" unicode="b" horiz-adv-x="602" 
d="M99 242v-101q35 -63 101 -93t138 -16t119 71q36 43 44.5 107t-9 122.5t-64 100t-110.5 41.5q-43 0 -78 -8t-55.5 -18.5t-38.5 -28t-24.5 -27.5t-14.5 -26.5l-8 -16.5v-107zM49 730h50v-328q12 17 28 33.5t43.5 38t66.5 35t82 13.5q74 0 131.5 -42t85 -110t21.5 -146
q-5 -56 -30.5 -103t-62 -75.5t-78 -44.5t-81.5 -16q-59 0 -118.5 38t-87.5 80v-103h-50v730z" />
    <glyph glyph-name="c" unicode="c" horiz-adv-x="478" 
d="M433 79q-20 -16 -45 -27q-39 -18 -84 -18q-44 0 -82.5 17t-67 47t-44.5 70.5t-16 86.5v2q0 45 15.5 85t43 69.5t66 47t83.5 17.5q44 0 82 -17q27 -12 49 -30v59q-12 7 -25 12q-47 22 -104 22t-105 -21.5t-83.5 -58.5t-55 -85t-19.5 -102v-2q0 -54 19.5 -102t54.5 -84
t82.5 -57.5t104.5 -21.5t105 22q13 6 26 13v56zM433 79zM433 23z" />
    <glyph glyph-name="d" unicode="d" horiz-adv-x="601" 
d="M500 242v-101q-35 -63 -101 -93t-137.5 -16t-119.5 71q-36 43 -44 107t9 122.5t63.5 100t110.5 41.5q43 0 78 -8t55.5 -18.5t38.5 -28t24.5 -27.5t14.5 -26.5l8 -16.5v-107zM550 730h-50v-328q-12 17 -28 33.5t-43.5 38t-66.5 35t-82 13.5q-74 0 -131.5 -42t-85 -110
t-21.5 -146q5 -56 30.5 -103t62 -75.5t78.5 -44.5t81 -16q59 0 118.5 38t87.5 80v-103h50v730z" />
    <glyph glyph-name="e" unicode="e" horiz-adv-x="562" 
d="M95 235q3 -35 15 -67q16 -40 44.5 -70t67 -47t82.5 -17q45 0 84 18q25 11 45 27v-56q-13 -7 -26 -13q-48 -22 -105 -22t-104.5 21.5t-82.5 57.5t-54.5 84t-19.5 102v2q0 54 19.5 102t55 85t83.5 58.5t105 21.5q24 0 50 -8t56.5 -29t54 -51.5t39 -82.5t14.5 -116h-423z
M302 476q-45 0 -83.5 -17.5t-66 -47t-42.5 -69.5q-12 -30 -15 -63h372q-1 19 -15 67q-10 32 -26 56.5t-30 37t-34 21t-29.5 10.5t-24.5 4q-4 1 -6 1z" />
    <glyph glyph-name="f" unicode="f" horiz-adv-x="383" 
d="M161 0h-50v466h-74v44h74v1q0 14 -0.5 31t2 38t6.5 40.5t13.5 38.5t23.5 32q11 10 23.5 18t23.5 13t23.5 7.5t22.5 3.5t22 0.5t20 -1.5t17.5 -3t14 -3.5t11.5 -3.5l7 -2l-2 -45q-103 38 -152 -18q-10 -11 -16 -23t-8 -31t-3 -27t0 -35t1 -30v-1h178v-44h-178v-466z" />
    <glyph glyph-name="g" unicode="g" horiz-adv-x="599" 
d="M96 281.5q0 81.5 57.5 138.5t138.5 57t145.5 -59t64.5 -140.5t-64.5 -137t-145.5 -55.5t-138.5 57.5t-57.5 139zM549 509h-50v-107q-1 2 -4 6q-11 16 -19 26t-28 29t-41 30t-55 20t-73 9q-66 0 -122.5 -38t-81.5 -90t-25 -109q0 -62 20.5 -109t58.5 -76t81 -44.5
t83 -15.5q38 0 72 11t59.5 30t43 37.5t31.5 39.5v-76q-1 -12 -1.5 -19t-5.5 -30t-12.5 -39.5t-23 -39t-36 -36.5t-53 -24.5t-72.5 -10.5q-132 0 -190 66v-62q95 -51 193 -51q49 0 94 17.5t76 45t51 59.5t24 63q4 39 5 60h1v428z" />
    <glyph glyph-name="h" unicode="h" horiz-adv-x="537" 
d="M98 418q10 17 24 32t36.5 33t56 28.5t72.5 10.5q53 0 93.5 -20t63 -53t33.5 -70.5t11 -78.5v-300h-51v292v10.5t-2 26t-6.5 37t-16 38.5t-28 36.5t-45 26t-64.5 10.5q-116 0 -177 -123v-354h-49v730h49v-312z" />
    <glyph glyph-name="i" unicode="i" horiz-adv-x="147" 
d="M39 667h67v-85h-67v85zM97 415v95h-49v-510h49v415z" />
    <glyph glyph-name="j" unicode="j" horiz-adv-x="312" 
d="M262 659v51h-49v-67h49v16zM212 510h50v-450v-9q-1 -14 0 -31t-1.5 -38t-6.5 -40.5t-13.5 -38.5t-23.5 -32q-11 -10 -23.5 -18t-23.5 -13t-23.5 -7.5t-22.5 -3.5t-22 -0.5t-20 1.5t-17.5 3t-14 3.5t-11.5 3.5l-7 2l2 45q103 -38 152 18q10 11 16 23t8 31t3 27t0 35t-1 30
v5v4v450z" />
    <glyph glyph-name="k" unicode="k" horiz-adv-x="524" 
d="M98 415v315h-49v-730h49v126l122 122l205 -248h64l-232 285l225 224h-68l-316 -328v234z" />
    <glyph glyph-name="l" unicode="l" horiz-adv-x="316" 
d="M97 730h-50v-502v-9q1 -14 0.5 -31t1.5 -38t6 -40.5t13.5 -38.5t23.5 -32q11 -10 23.5 -18t23.5 -13t23.5 -7.5t23 -3.5t22 -0.5t19.5 1.5t17.5 3t14 3.5t11.5 3.5l7 2l-2 45q-102 -38 -152 18q-10 11 -16 23t-8 31t-3 27t0 35t1 30v5v4v502z" />
    <glyph glyph-name="m" unicode="m" horiz-adv-x="870" 
d="M98 345q49 131 164 131q34 0 60.5 -11t42 -28t26 -38t14.5 -42t5.5 -38t0.5 -28v-11v-280h49v300q0 20 -3 40q48 136 166 136q34 0 60.5 -11t42 -28t26 -38t14.5 -42t5.5 -38t0.5 -28v-11v-280h49v300q0 41 -10.5 78.5t-31.5 70.5t-59.5 53t-88.5 20q-42 0 -77 -14.5
t-57 -38t-33.5 -40.5t-19.5 -33q-19 57 -62 91.5t-112 34.5q-110 0 -172 -99v87h-49v-510h49v345z" />
    <glyph glyph-name="n" unicode="n" horiz-adv-x="534" 
d="M98 345q49 131 164 131q174 -2 174 -196v-280h49v300q0 106 -55 164t-160 58q-110 0 -172 -99v87h-49v-510h49v345z" />
    <glyph glyph-name="o" unicode="o" horiz-adv-x="609" 
d="M304 34q45 0 83.5 17.5t66 47t43 69.5t15.5 85v2q0 46 -16 86.5t-44.5 70.5t-67 47t-82.5 17q-45 0 -83.5 -17.5t-66 -47t-43 -69.5t-15.5 -85v-2q0 -46 16 -86.5t44.5 -70.5t67 -47t82.5 -17zM302 -12q-57 0 -104.5 21.5t-82.5 57.5t-54.5 84t-19.5 102v2q0 54 19.5 102
t55 85t83.5 58.5t105 21.5t104.5 -21.5t82.5 -57.5t54.5 -84t19.5 -102v-2q0 -54 -19.5 -102t-55 -85t-83.5 -58.5t-105 -21.5z" />
    <glyph glyph-name="p" unicode="p" horiz-adv-x="601" 
d="M98 264v101q35 63 101 93t138 15.5t119 -70.5q36 -43 44.5 -107.5t-9 -122.5t-64 -99.5t-110.5 -41.5q-43 0 -78 8t-55.5 18.5t-38.5 27.5t-24.5 27.5t-14.5 26.5t-8 17v107zM48 -159h50v263q12 -17 28 -33.5t43.5 -38t66.5 -35t82 -13.5q112 0 180 89t58 209
q-5 56 -30.5 102.5t-62 75.5t-78 45t-81.5 16q-59 0 -118.5 -38t-87.5 -80v106h-50v-668z" />
    <glyph glyph-name="q" unicode="q" horiz-adv-x="600" 
d="M500 264v101q-35 63 -101 93t-137.5 15.5t-119.5 -70.5q-36 -43 -44 -107.5t9 -122.5t63.5 -99.5t110.5 -41.5q43 0 78 8t55.5 18.5t38.5 27.5t24.5 27.5t14.5 26.5t8 17v107zM550 -159h-50v263q-12 -17 -28 -33.5t-43.5 -38t-66.5 -35t-82 -13.5q-74 0 -131.5 42
t-85 110t-21.5 146q5 56 30.5 102.5t62 75.5t78.5 45t81 16q59 0 118.5 -38t87.5 -80v106h50v-668z" />
    <glyph glyph-name="r" unicode="r" horiz-adv-x="356" 
d="M314 464q-16 0 -33.5 -2t-47 -14.5t-53.5 -33.5t-47.5 -64t-34.5 -102v-248h-49v510h49v-95v-46q46 89 104 117q53 29 112 31v-53z" />
    <glyph glyph-name="s" unicode="s" horiz-adv-x="460" 
d="M380 423q-7 5 -19.5 12t-48 20.5t-67 18t-68 -6t-60.5 -42.5q-21 -39 -5.5 -67.5t51 -41.5t81.5 -29t86.5 -31.5t66 -48t20.5 -78.5q-6 -61 -43.5 -95.5t-88 -40t-102.5 2.5t-92.5 26t-54.5 36l24 43q10 -7 27.5 -18t65 -29.5t87.5 -18.5q65 0 96 29t31 77
q0 28 -27.5 50.5t-62.5 34.5t-89 24q-71 16 -108.5 62.5t-19.5 103.5q18 56 73.5 84t117.5 19q35 -5 73.5 -19.5t59.5 -26.5l21 -12z" />
    <glyph glyph-name="t" unicode="t" horiz-adv-x="383" 
d="M161 510h176v-44h-176v-242v-4v-5q0 -7 -0.5 -26t-0.5 -27.5t1 -24.5t4 -25.5t8.5 -21.5t13.5 -21q49 -56 152 -18l2 -45l-7 -2q-7 -2 -11.5 -3.5t-14 -3.5t-17.5 -3t-20 -1.5t-22 0.5t-22.5 3.5t-23.5 7.5t-23.5 13t-23.5 18q-22 20 -33 60.5t-11.5 60.5t-0.5 59v9v242
h-74v44h74v163h50v-163z" />
    <glyph glyph-name="u" unicode="u" horiz-adv-x="531" 
d="M432 165q-49 -131 -164 -131q-174 2 -174 196v280h-49v-300q0 -106 55 -164t160 -58q110 0 172 99v-87h49v510h-49v-345z" />
    <glyph glyph-name="v" unicode="v" horiz-adv-x="576" 
d="M35 509h57l192 -453l198 455l56 -1l-231 -514h-42z" />
    <glyph glyph-name="w" unicode="w" horiz-adv-x="840" 
d="M35 510h57l148 -454l156 454h2h46l148 -454l156 454h56l-189 -514h-42l-152 448l-158 -448h-42z" />
    <glyph glyph-name="x" unicode="x" horiz-adv-x="552" 
d="M42 510l201 -250l-209 -260h61l180 227l179 -227h61l-208 260l201 250h-61l-169 -215l-173 215h-63z" />
    <glyph glyph-name="y" unicode="y" horiz-adv-x="577" 
d="M69 -147q49 -16 90 -16q52 1 97.5 43.5t67.5 115.5l217 514h-56l-184 -454l-210 454h-57l246 -508q-1 -1 -6.5 -15t-9.5 -22t-11.5 -22.5t-16 -23t-19.5 -18.5t-24.5 -14.5t-28.5 -4.5q-54 0 -95 18v-47z" />
    <glyph glyph-name="z" unicode="z" horiz-adv-x="526" 
d="M55 510h426v-30l-366 -436h368v-44h-444v28l371 438h-355v44z" />
    <glyph glyph-name="braceleft" unicode="{" horiz-adv-x="435" 
d="M393 -149q-22 7 -52 19q-34 13 -57.5 26t-40 25t-26.5 28t-15.5 29t-8 35.5t-3 39.5t-1.5 49t-2 58q-5 58 -27 80t-68 27h-2h-48v39h29q18 0 33 2.5t26 7t20 10.5t15.5 14.5t11 19t7 23t4 27t2.5 31t1 35.5v39v27q0 39 17.5 70t41 48.5t55 30t51 17t37.5 6.5v-37
q-17 -8 -40.5 -18t-34 -14.5t-26 -13t-21.5 -15t-15 -19t-11 -25.5t-5 -34t-2.5 -45.5t3.5 -58.5q0 -35 -11 -63t-26 -42.5t-30 -24.5t-26 -12l-10 -3q6 -3 20 -7.5t23.5 -8.5t22 -18.5t19.5 -38t12 -67.5t5 -105q-1 -31 11 -57t29 -41t40 -27t39.5 -16.5t33.5 -7.5v-44z
" />
    <glyph glyph-name="bar" unicode="|" horiz-adv-x="144" 
d="M50 798h44v-926h-44v926z" />
    <glyph glyph-name="braceright" unicode="}" horiz-adv-x="435" 
d="M42 -149q21 7 52 19q33 13 57 26t40 25t26 28t15.5 29t8 35.5t3 39.5t1.5 49t3 58q4 58 26 80t69 27h1h49v39h-30q-18 0 -32.5 2.5t-26 7t-20 10.5t-15 14.5t-11 19t-7.5 23t-4.5 27t-2 31t-0.5 35.5v39v27q0 39 -17.5 70t-41 48.5t-55.5 30t-51 17t-37 6.5v-37
q16 -8 40 -18t34 -14.5t26 -13t22 -15t15 -19t11 -25.5t4.5 -34t2 -45.5t-2.5 -58.5q0 -35 10.5 -63t25.5 -42.5t30.5 -24.5t25.5 -12l11 -3q-6 -3 -20 -7.5t-23.5 -8.5t-22 -18.5t-20 -38t-12.5 -67.5t-4 -105q0 -31 -12 -57t-28.5 -41t-40 -27t-39.5 -16.5t-33 -7.5v-44z
" />
    <glyph glyph-name="asciitilde" unicode="~" horiz-adv-x="389" 
d="M47 251q14 54 34 73.5t50 19.5q14 0 31 -6.5t34.5 -14t33.5 -14t29 -6.5q18 0 28.5 10.5t21.5 39.5l34 -9q-14 -54 -34 -73.5t-50 -19.5q-14 0 -31 6.5t-34.5 14t-33.5 14t-29 6.5q-18 0 -28.5 -10.5t-21.5 -39.5z" />
    <glyph glyph-name="uni007F" 
 />
    <glyph glyph-name="uni0080" 
 />
    <glyph glyph-name="uni0081" 
 />
    <glyph glyph-name="uni0082" 
 />
    <glyph glyph-name="uni0083" 
 />
    <glyph glyph-name="uni0084" 
 />
    <glyph glyph-name="uni0085" unicode="&#x85;" 
 />
    <glyph glyph-name="uni0089" 
 />
    <glyph glyph-name="uni008A" 
 />
    <glyph glyph-name="uni008B" 
 />
    <glyph glyph-name="uni008C" 
 />
    <glyph glyph-name="uni008D" 
 />
    <glyph glyph-name="uni008E" 
 />
    <glyph glyph-name="uni008F" 
 />
    <glyph glyph-name="uni0090" 
 />
    <glyph glyph-name="uni0091" 
 />
    <glyph glyph-name="uni0092" 
 />
    <glyph glyph-name="uni0093" 
 />
    <glyph glyph-name="uni0094" 
 />
    <glyph glyph-name="uni0095" 
 />
    <glyph glyph-name="uni0096" 
 />
    <glyph glyph-name="uni0097" 
 />
    <glyph glyph-name="uni0098" 
 />
    <glyph glyph-name="uni0099" 
 />
    <glyph glyph-name="uni009A" 
 />
    <glyph glyph-name="uni009B" 
 />
    <glyph glyph-name="uni009C" 
 />
    <glyph glyph-name="uni009D" 
 />
    <glyph glyph-name="uni009E" 
 />
    <glyph glyph-name="uni009F" 
 />
    <glyph glyph-name="uni00A0" unicode="&#xa0;" 
 />
    <glyph glyph-name="exclamdown" unicode="&#xa1;" horiz-adv-x="159" 
d="M67 518l-15 -518h58l-16 518h-27zM46 616h67v86h-67v-86z" />
    <glyph glyph-name="cent" unicode="&#xa2;" horiz-adv-x="479" 
d="M366 568l22 -8q26 -12 48 -30v59l-24 12q-41 19 -89 21l11 80h-56l-11 -82q-34 -5 -65 -19q-48 -21 -83.5 -58t-55 -85t-19.5 -102v-2q0 -54 19.5 -102t54.5 -84q34 -35 79 -56l-15 -112h56l13 94q26 -5 54 -5q57 0 105 21q13 6 26 13v57q-20 -16 -46 -28
q-38 -17 -83 -17q-26 0 -50 5l60 436q26 -1 49 -8zM260 572l-56 -410q-26 15 -46 37q-29 30 -45 70.5t-16 86.5v2q0 45 15.5 85t43 69.5t66.5 46.5q18 9 38 13z" />
    <glyph glyph-name="sterling" unicode="&#xa3;" horiz-adv-x="644" 
d="M426 664l-6 -9q-190 25 -212 -154v-149h176v-47h-176v-252h216v-53h-316v51h50v254h-89v47h89v141q18 235 269 216q0 -1 -1 -45z" />
    <glyph glyph-name="currency" unicode="&#xa4;" horiz-adv-x="765" 
d="M188 471h285v-48h-299q-7 -34 -7 -71v-2q0 -27 4 -53h302v-48h-291q3 -11 7 -21q23 -58 62.5 -100.5t94.5 -67.5t120 -25t119 25q16 7 31 15q35 21 63 51q21 23 37 49v-82q-42 -44 -100 -72q-4 -2 -8 -3q-65 -30 -144 -30q-80 0 -144.5 29.5t-110.5 79t-71 114.5
q-7 19 -12 38h-82v48h72q-3 25 -3 51v2q0 37 7 73h-76v48h88q3 8 6 17q26 65 72 115t111 79.5t145 29.5q79 0 144 -30l6 -2q58 -28 100 -71q2 -3 5 -5v-84q-12 19 -43 52q-27 30 -62 51q-16 9 -32 17q-55 25 -120 25t-119.5 -24.5t-94 -67t-61.5 -99.5z" />
    <glyph glyph-name="yen" unicode="&#xa5;" horiz-adv-x="702" 
d="M326 125h-213v45h213v98h-213v45h195l-268 387h63l249 -373l250 373h60l-269 -387h196v-45h-213v-98h213v-45h-213v-125h-50v125z" />
    <glyph glyph-name="brokenbar" unicode="&#xa6;" 
 />
    <glyph glyph-name="section" unicode="&#xa7;" horiz-adv-x="607" 
d="M533 624q-1 1 -12.5 11t-19.5 16t-24.5 17t-33.5 18t-39.5 14t-50.5 9.5t-58 0.5q-109 -6 -168.5 -57t-59.5 -131q0 -48 23 -84q-16 -32 -18.5 -60t8 -50t30 -40.5t50 -32.5t66 -24.5t79.5 -18.5q48 -10 81 -23t46.5 -27.5t18 -24.5t4.5 -21q-2 -26 -19 -44t-39.5 -24.5
t-46 -9.5t-40.5 0q-129 -2 -233 101l-37 -39q6 -4 34 -25.5t45.5 -31.5t49.5 -25.5t71 -22.5t86 -7q61 0 113 20.5t83 55t40.5 79.5t-13.5 95q-27 51 -90.5 87t-136.5 52q-5 1 -16 3l-42 9t-37.5 10t-35.5 13.5t-28 17t-23.5 23t-12.5 30.5t-5 39q1 72 52.5 107.5
t126.5 33.5q58 -2 114.5 -25t85.5 -55zM124 398q12 -10 27 -18.5t37 -16.5t36.5 -13t47 -14.5t48.5 -14.5q113 -35 151 -72t33 -93q-15 34 -76 66t-121 45l-15 3q-20 5 -30.5 7t-30 7t-30 8.5t-26 10t-23.5 13t-17 15.5t-12 18.5t-3.5 22t4.5 26.5z" />
    <glyph glyph-name="dieresis" unicode="&#xa8;" horiz-adv-x="326" 
d="M47 675h69v-80h-69v80zM210 675h69v-80h-69v80z" />
    <glyph glyph-name="copyright" unicode="&#xa9;" horiz-adv-x="804" 
d="M556 497q-25 26 -58 42l-4 2q-38 17 -84 17t-84 -17.5t-65 -46.5t-41.5 -67t-14.5 -80v-1q0 -42 14.5 -80t41 -67t64.5 -46t84 -17t84 17q2 1 5 2q33 16 58 42v48q-9 -15 -21 -28q-17 -18 -37 -30q-9 -5 -18 -9q-32 -15 -70 -15t-70 14.5t-55 39.5t-36 58.5t-13 71.5v1
q0 38 13 71t36 58t54.5 39t69.5 14t70 -14q10 -5 19 -10q20 -12 36 -30q18 -19 25 -30v49q-2 1 -3 2zM556 245zM123 159q46 -70 120 -110t160 -40q91 0 168.5 44.5t122.5 122t45 168.5t-45 168.5t-122.5 122.5t-168.5 45t-168.5 -45t-122.5 -122.5t-45 -168.5
q0 -101 56 -185zM44 344.5q0 97.5 48 180t130.5 130.5t179.5 48t179.5 -48t130.5 -130.5t48 -180t-48 -180t-130.5 -130t-179.5 -47.5t-179.5 47.5t-130.5 130t-48 180z" />
    <glyph glyph-name="ordfeminine" unicode="&#xaa;" horiz-adv-x="344" 
d="M160 447q19 0 36.5 5.5t30.5 15.5t21 24.5t8 31.5v27q-17 5 -37 8t-48 3q-38 0 -60 -16t-22 -41v-2q0 -27 21 -41.5t50 -14.5zM46 333h252v-40h-252v40zM158 411q-20 0 -39.5 5.5t-35 17t-25 28t-9.5 39.5v2q0 45 34.5 69t89.5 24q27 0 46.5 -3t36.5 -8v5
q0 38 -22.5 57.5t-60.5 19.5q-24 0 -44.5 -6.5t-43.5 -17.5l-13 34q26 12 50 19t53 7q58 0 90 -32q28 -28 28 -80v-174h-37v41q-17 -22 -41.5 -34.5t-56.5 -12.5z" />
    <glyph glyph-name="guillemotleft" unicode="&#xab;" horiz-adv-x="486" 
d="M401 469l41 -26l-135 -187l134 -189l-36 -25l-158 207zM197 469l41 -26l-135 -187l134 -189l-36 -25l-158 207z" />
    <glyph glyph-name="logicalnot" unicode="&#xac;" 
 />
    <glyph glyph-name="uni00AD" unicode="&#xad;" horiz-adv-x="366" 
d="M49 325h268v-56h-268v56z" />
    <glyph glyph-name="registered" unicode="&#xae;" horiz-adv-x="804" 
d="M285 440v78h130q41 0 69.5 -20t28.5 -54q0 -44 -28 -67t-90 -23h-110v86zM285 178v150h116h2.5h2.5l115 -150h34l-119 155q46 8 75 35.5t29 75.5q0 28 -14 49t-36 31t-42.5 14.5t-39.5 4.5h-124h-5h-20l-1 -365h27zM123 159q46 -70 120 -110t160 -40q91 0 168.5 44.5
t122.5 122t45 168.5t-45 168.5t-122.5 122.5t-168.5 45t-168.5 -45t-122.5 -122.5t-45 -168.5q0 -101 56 -185zM44 344.5q0 97.5 48 180t130.5 130.5t179.5 48t179.5 -48t130.5 -130.5t48 -180t-48 -180t-130.5 -130t-179.5 -47.5t-179.5 47.5t-130.5 130t-48 180z" />
    <glyph glyph-name="macron" unicode="&#xaf;" horiz-adv-x="394" 
d="M47 653h300v-53h-300v53z" />
    <glyph glyph-name="degree" unicode="&#xb0;" horiz-adv-x="392" 
d="M196 456q22 0 40.5 8.5t32 22.5t21 32.5t7.5 38.5v2q0 20 -7.5 38.5t-21 32.5t-32 22.5t-40.5 8.5t-40.5 -8.5t-32 -22.5t-21 -32.5t-7.5 -38.5v-2q0 -20 7.5 -38.5t21 -32.5t32 -22.5t40.5 -8.5zM196 412q-30 0 -57 12t-48 32t-33.5 46.5t-12.5 55.5v2q0 29 12.5 55.5
t33.5 46.5t48 32t57 12t57 -12t48 -32t33.5 -46.5t12.5 -55.5v-2q0 -29 -12.5 -55.5t-33.5 -46.5t-48 -32t-57 -12z" />
    <glyph glyph-name="plusminus" unicode="&#xb1;" 
 />
    <glyph glyph-name="uni00B2" unicode="&#xb2;" 
 />
    <glyph glyph-name="uni00B3" unicode="&#xb3;" 
 />
    <glyph glyph-name="acute" unicode="&#xb4;" horiz-adv-x="241" 
d="M196 702l-58 23l-92 -126h40z" />
    <glyph glyph-name="uni00B5" unicode="&#xb5;" horiz-adv-x="535" 
d="M437 165q-49 -131 -164 -131q-174 2 -174 196v280h-49v-274v-376h49v193q56 -65 166 -65t172 99v-87h49v510h-49v-345z" />
    <glyph glyph-name="paragraph" unicode="&#xb6;" horiz-adv-x="423" 
d="M323 0v260h-41q-115 -1 -177 66t-62 184q0 59 40 104.5t95.5 66.5t112.5 21h34h9h40v-702h-51z" />
    <glyph glyph-name="periodcentered" unicode="&#xb7;" horiz-adv-x="164" 
d="M49 340h66v-85h-66v85z" />
    <glyph glyph-name="cedilla" unicode="&#xb8;" horiz-adv-x="225" 
d="M46 -122l90 132h43l-78 -158z" />
    <glyph glyph-name="uni00B9" unicode="&#xb9;" 
 />
    <glyph glyph-name="ordmasculine" unicode="&#xba;" horiz-adv-x="380" 
d="M191 450q45 0 72.5 31t27.5 75v2q0 22 -8 42t-21.5 34.5t-32 23t-40.5 8.5q-45 0 -72.5 -31t-27.5 -75v-2q0 -23 8 -42.5t21.5 -34t32 -23t40.5 -8.5zM46 333h288v-40h-288v40zM189 411q-31 0 -57.5 11.5t-45.5 31.5t-29.5 46.5t-10.5 55.5v2q0 30 11 56.5t30 46.5
t45.5 32t58.5 12q31 0 57.5 -11.5t45.5 -31.5t29.5 -46.5t10.5 -55.5v-2q0 -30 -11 -56.5t-30 -46.5t-46 -32t-58 -12z" />
    <glyph glyph-name="guillemotright" unicode="&#xbb;" horiz-adv-x="486" 
d="M85 35l-41 26l135 187l-134 189l36 25l158 -207zM289 35l-41 26l135 187l-134 189l36 25l158 -207z" />
    <glyph glyph-name="onequarter" unicode="&#xbc;" 
 />
    <glyph glyph-name="onehalf" unicode="&#xbd;" 
 />
    <glyph glyph-name="threequarters" unicode="&#xbe;" 
 />
    <glyph glyph-name="questiondown" unicode="&#xbf;" horiz-adv-x="532" 
d="M316 613h-67v85h67v-85zM493 108q-20 -23 -31 -34t-34.5 -30t-44.5 -28.5t-53.5 -18t-69.5 -9.5q-97 3 -154.5 58.5t-60.5 141.5q2 46 20 82.5t42 57t55 35t54 19.5t44 7l7 125h28l17 -167q-21 2 -52 -2.5t-67.5 -18.5t-63 -47t-29.5 -80q-7 -73 43.5 -117.5t122.5 -46.5
q57 -1 106.5 29.5t83.5 74.5z" />
    <glyph glyph-name="Agrave" unicode="&#xc0;" horiz-adv-x="776" 
d="M265 875l58 23l92 -126h-40zM48 0l322 702h50l334 -702h-58l-90 198h-411l-93 -198h-54zM585 244l-190 403l-179 -403h369z" />
    <glyph glyph-name="Aacute" unicode="&#xc1;" horiz-adv-x="776" 
d="M525 875l-58 23l-92 -126h40zM48 0l322 702h50l334 -702h-58l-90 198h-411l-93 -198h-54zM585 244l-190 403l-179 -403h369z" />
    <glyph glyph-name="Acircumflex" unicode="&#xc2;" horiz-adv-x="776" 
d="M375 894h40l100 -122h-47l-74 68l-74 -68h-45zM48 0l322 702h50l334 -702h-58l-90 198h-411l-93 -198h-54zM585 244l-190 403l-179 -403h369z" />
    <glyph glyph-name="Atilde" unicode="&#xc3;" horiz-adv-x="776" 
d="M247 781q14 54 34 73.5t50 19.5q14 0 31 -6.5t34.5 -14t33.5 -14t29 -6.5q18 0 28.5 10.5t21.5 39.5l34 -9q-14 -54 -34 -73.5t-50 -19.5q-14 0 -31 6.5t-34.5 14t-33.5 14t-29 6.5q-18 0 -28.5 -10.5t-21.5 -39.5zM48 0l322 702h50l334 -702h-58l-90 198h-411l-93 -198
h-54zM585 244l-190 403l-179 -403h369z" />
    <glyph glyph-name="Adieresis" unicode="&#xc4;" horiz-adv-x="776" 
d="M279 852h69v-80h-69v80zM442 852h69v-80h-69v80zM48 0l322 702h50l334 -702h-58l-90 198h-411l-93 -198h-54zM585 244l-190 403l-179 -403h369z" />
    <glyph glyph-name="Aring" unicode="&#xc5;" horiz-adv-x="776" 
d="M395 746q22 0 40.5 8.5t32 22.5t21 32.5t7.5 38.5v2q0 20 -7.5 38.5t-21 32.5t-32 22.5t-40.5 8.5t-40.5 -8.5t-32 -22.5t-21 -32.5t-7.5 -38.5v-2q0 -20 7.5 -38.5t21 -32.5t32 -22.5t40.5 -8.5zM395 702q-30 0 -57 12t-48 32t-33.5 46.5t-12.5 55.5v2q0 29 12.5 55.5
t33.5 46.5t48 32t57 12t57 -12t48 -32t33.5 -46.5t12.5 -55.5v-2q0 -29 -12.5 -55.5t-33.5 -46.5t-48 -32t-57 -12zM48 0l322 702h50l334 -702h-58l-90 198h-411l-93 -198h-54zM585 244l-190 403l-179 -403h369z" />
    <glyph glyph-name="AE" unicode="&#xc6;" horiz-adv-x="115" 
 />
    <glyph glyph-name="Ccedilla" unicode="&#xc7;" horiz-adv-x="691" 
d="M281 -139l90 132h43l-78 -158zM644 609q-42 43 -100 71l-6 2q-65 30 -144 30q-80 0 -145 -29.5t-111 -79.5t-71.5 -115.5t-25.5 -137.5v-2q0 -72 25 -137t71 -114.5t110.5 -79t144.5 -29.5q79 0 144 30q4 1 8 3q58 28 100 72v82q-16 -26 -36 -49q-29 -30 -64 -51
q-15 -8 -30 -15q-55 -25 -120 -25t-120 25t-94.5 67.5t-62 100t-22.5 122.5v2q0 65 22 122t61.5 99.5t94 67t119.5 24.5t120 -25q17 -8 32 -17q35 -21 62 -51q31 -33 43 -52v84zM644 175z" />
    <glyph glyph-name="Egrave" unicode="&#xc8;" horiz-adv-x="588" 
d="M167 875l58 23l92 -126h-40zM98 49h351h95v-49h-495l2 702h493v-50h-446v-206v-31v-38h351h51v-49h-374h-28v-279z" />
    <glyph glyph-name="Eacute" unicode="&#xc9;" horiz-adv-x="588" 
d="M427 875l-58 23l-92 -126h40zM98 49h351h95v-49h-495l2 702h493v-50h-446v-206v-31v-38h351h51v-49h-374h-28v-279z" />
    <glyph glyph-name="Ecircumflex" unicode="&#xca;" horiz-adv-x="588" 
d="M277 894h40l100 -122h-47l-74 68l-74 -68h-45zM98 49h351h95v-49h-495l2 702h493v-50h-446v-206v-31v-38h351h51v-49h-374h-28v-279z" />
    <glyph glyph-name="Edieresis" unicode="&#xcb;" horiz-adv-x="588" 
d="M181 852h69v-80h-69v80zM344 852h69v-80h-69v80zM98 49h351h95v-49h-495l2 702h493v-50h-446v-206v-31v-38h351h51v-49h-374h-28v-279z" />
    <glyph glyph-name="Igrave" unicode="&#xcc;" horiz-adv-x="149" 
d="M-57 875l58 23l92 -126h-40zM98 0h-49v702h49v-702z" />
    <glyph glyph-name="Iacute" unicode="&#xcd;" horiz-adv-x="149" 
d="M204 875l-58 23l-92 -126h40zM98 0h-49v702h49v-702z" />
    <glyph glyph-name="Icircumflex" unicode="&#xce;" horiz-adv-x="149" 
d="M53 894h40l100 -122h-47l-74 68l-74 -68h-45zM98 0h-49v702h49v-702z" />
    <glyph glyph-name="Idieresis" unicode="&#xcf;" horiz-adv-x="149" 
d="M-43 852h69v-80h-69v80zM120 852h69v-80h-69v80zM98 0h-49v702h49v-702z" />
    <glyph glyph-name="Eth" unicode="&#xd0;" horiz-adv-x="115" 
 />
    <glyph glyph-name="Ntilde" unicode="&#xd1;" horiz-adv-x="680" 
d="M191 781q14 54 34 73.5t50 19.5q14 0 31 -6.5t34.5 -14t33.5 -14t29 -6.5q18 0 28.5 10.5t21.5 39.5l34 -9q-14 -54 -34 -73.5t-50 -19.5q-14 0 -31 6.5t-34.5 14t-33.5 14t-29 6.5q-18 0 -28.5 -10.5t-21.5 -39.5zM98 0h-49v702h49l482 -603v603h49v-702h-33l-498 627
v-627z" />
    <glyph glyph-name="Ograve" unicode="&#xd2;" horiz-adv-x="790" 
d="M264 875l58 23l92 -126h-40zM394 35q65 0 119.5 24.5t94 67t61.5 99.5t22 122v2q0 65 -22.5 122.5t-62 100t-94.5 67.5t-120 25t-119.5 -24.5t-94 -67t-61.5 -99.5t-22 -122v-2q0 -65 22.5 -122.5t62 -100t94.5 -67.5t120 -25zM392 -12q-80 0 -144.5 29.5t-110.5 79
t-71 114.5t-25 137v2q0 72 25.5 137.5t71.5 115.5t111 79.5t145 29.5q79 0 144 -29.5t111 -79t71 -114.5t25 -137q1 -1 0 -2q0 -72 -25.5 -137.5t-71.5 -115.5t-111.5 -79.5t-144.5 -29.5z" />
    <glyph glyph-name="Oacute" unicode="&#xd3;" horiz-adv-x="790" 
d="M524 875l-58 23l-92 -126h40zM394 35q65 0 119.5 24.5t94 67t61.5 99.5t22 122v2q0 65 -22.5 122.5t-62 100t-94.5 67.5t-120 25t-119.5 -24.5t-94 -67t-61.5 -99.5t-22 -122v-2q0 -65 22.5 -122.5t62 -100t94.5 -67.5t120 -25zM392 -12q-80 0 -144.5 29.5t-110.5 79
t-71 114.5t-25 137v2q0 72 25.5 137.5t71.5 115.5t111 79.5t145 29.5q79 0 144 -29.5t111 -79t71 -114.5t25 -137q1 -1 0 -2q0 -72 -25.5 -137.5t-71.5 -115.5t-111.5 -79.5t-144.5 -29.5z" />
    <glyph glyph-name="Ocircumflex" unicode="&#xd4;" horiz-adv-x="790" 
d="M374 894h40l100 -122h-47l-74 68l-74 -68h-45zM394 35q65 0 119.5 24.5t94 67t61.5 99.5t22 122v2q0 65 -22.5 122.5t-62 100t-94.5 67.5t-120 25t-119.5 -24.5t-94 -67t-61.5 -99.5t-22 -122v-2q0 -65 22.5 -122.5t62 -100t94.5 -67.5t120 -25zM392 -12
q-80 0 -144.5 29.5t-110.5 79t-71 114.5t-25 137v2q0 72 25.5 137.5t71.5 115.5t111 79.5t145 29.5q79 0 144 -29.5t111 -79t71 -114.5t25 -137q1 -1 0 -2q0 -72 -25.5 -137.5t-71.5 -115.5t-111.5 -79.5t-144.5 -29.5z" />
    <glyph glyph-name="Otilde" unicode="&#xd5;" horiz-adv-x="790" 
d="M246 781q14 54 34 73.5t50 19.5q14 0 31 -6.5t34.5 -14t33.5 -14t29 -6.5q18 0 28.5 10.5t21.5 39.5l34 -9q-14 -54 -34 -73.5t-50 -19.5q-14 0 -31 6.5t-34.5 14t-33.5 14t-29 6.5q-18 0 -28.5 -10.5t-21.5 -39.5zM394 35q65 0 119.5 24.5t94 67t61.5 99.5t22 122v2
q0 65 -22.5 122.5t-62 100t-94.5 67.5t-120 25t-119.5 -24.5t-94 -67t-61.5 -99.5t-22 -122v-2q0 -65 22.5 -122.5t62 -100t94.5 -67.5t120 -25zM392 -12q-80 0 -144.5 29.5t-110.5 79t-71 114.5t-25 137v2q0 72 25.5 137.5t71.5 115.5t111 79.5t145 29.5q79 0 144 -29.5
t111 -79t71 -114.5t25 -137q1 -1 0 -2q0 -72 -25.5 -137.5t-71.5 -115.5t-111.5 -79.5t-144.5 -29.5z" />
    <glyph glyph-name="Odieresis" unicode="&#xd6;" horiz-adv-x="790" 
d="M278 852h69v-80h-69v80zM441 852h69v-80h-69v80zM394 35q65 0 119.5 24.5t94 67t61.5 99.5t22 122v2q0 65 -22.5 122.5t-62 100t-94.5 67.5t-120 25t-119.5 -24.5t-94 -67t-61.5 -99.5t-22 -122v-2q0 -65 22.5 -122.5t62 -100t94.5 -67.5t120 -25zM392 -12
q-80 0 -144.5 29.5t-110.5 79t-71 114.5t-25 137v2q0 72 25.5 137.5t71.5 115.5t111 79.5t145 29.5q79 0 144 -29.5t111 -79t71 -114.5t25 -137q1 -1 0 -2q0 -72 -25.5 -137.5t-71.5 -115.5t-111.5 -79.5t-144.5 -29.5z" />
    <glyph glyph-name="multiply" unicode="&#xd7;" horiz-adv-x="115" 
 />
    <glyph glyph-name="Oslash" unicode="&#xd8;" horiz-adv-x="115" 
 />
    <glyph glyph-name="Ugrave" unicode="&#xd9;" horiz-adv-x="667" 
d="M203 875l58 23l92 -126h-40zM619 285v417h-49v-417v-4q1 -14 0.5 -25.5t-5 -38.5t-13 -48t-27 -47t-44 -43t-67 -29t-93.5 -12q-44 0 -80 11.5t-59 29.5t-40 42.5t-25.5 46.5t-13.5 46t-6 36.5t-1 22.5v429h-49v-429v-3q1 -14 2.5 -27t8.5 -43.5t17 -55.5t31 -55.5
t47.5 -51.5t69 -35t93.5 -14q63 0 113.5 14.5t81 36t53.5 53.5t33 58t15.5 57.5t6 45t0.5 28.5v4z" />
    <glyph glyph-name="Uacute" unicode="&#xda;" horiz-adv-x="667" 
d="M463 875l-58 23l-92 -126h40zM619 285v417h-49v-417v-4q1 -14 0.5 -25.5t-5 -38.5t-13 -48t-27 -47t-44 -43t-67 -29t-93.5 -12q-44 0 -80 11.5t-59 29.5t-40 42.5t-25.5 46.5t-13.5 46t-6 36.5t-1 22.5v429h-49v-429v-3q1 -14 2.5 -27t8.5 -43.5t17 -55.5t31 -55.5
t47.5 -51.5t69 -35t93.5 -14q63 0 113.5 14.5t81 36t53.5 53.5t33 58t15.5 57.5t6 45t0.5 28.5v4z" />
    <glyph glyph-name="Ucircumflex" unicode="&#xdb;" horiz-adv-x="667" 
d="M313 894h40l100 -122h-47l-74 68l-74 -68h-45zM619 285v417h-49v-417v-4q1 -14 0.5 -25.5t-5 -38.5t-13 -48t-27 -47t-44 -43t-67 -29t-93.5 -12q-44 0 -80 11.5t-59 29.5t-40 42.5t-25.5 46.5t-13.5 46t-6 36.5t-1 22.5v429h-49v-429v-3q1 -14 2.5 -27t8.5 -43.5
t17 -55.5t31 -55.5t47.5 -51.5t69 -35t93.5 -14q63 0 113.5 14.5t81 36t53.5 53.5t33 58t15.5 57.5t6 45t0.5 28.5v4z" />
    <glyph glyph-name="Udieresis" unicode="&#xdc;" horiz-adv-x="667" 
d="M217 852h69v-80h-69v80zM380 852h69v-80h-69v80zM619 285v417h-49v-417v-4q1 -14 0.5 -25.5t-5 -38.5t-13 -48t-27 -47t-44 -43t-67 -29t-93.5 -12q-44 0 -80 11.5t-59 29.5t-40 42.5t-25.5 46.5t-13.5 46t-6 36.5t-1 22.5v429h-49v-429v-3q1 -14 2.5 -27t8.5 -43.5
t17 -55.5t31 -55.5t47.5 -51.5t69 -35t93.5 -14q63 0 113.5 14.5t81 36t53.5 53.5t33 58t15.5 57.5t6 45t0.5 28.5v4z" />
    <glyph glyph-name="Yacute" unicode="&#xdd;" horiz-adv-x="721" 
d="M490 875l-58 23l-92 -126h40zM332 276l-298 426h62l264 -375l258 375h68l-302 -424v-278h-52v276z" />
    <glyph glyph-name="Thorn" unicode="&#xde;" horiz-adv-x="115" 
 />
    <glyph glyph-name="germandbls" unicode="&#xdf;" horiz-adv-x="115" 
 />
    <glyph glyph-name="agrave" unicode="&#xe0;" horiz-adv-x="520" 
d="M138 685l58 23l92 -126h-40zM435 214v55q-18 0 -39.5 0.5t-42 0.5h-50.5q-65 0 -112.5 -8.5t-73.5 -36.5q-10 -10 -16.5 -28t-8.5 -39.5t5.5 -43t23 -39.5t46.5 -29.5t74 -11.5q29 0 53.5 5t42.5 13t33 18t24.5 21.5t16.5 23t11 22t6.5 18.5t3.5 12.5l1 4.5q1 0 2 42z
M87 473q81 44 181 44q213 0 213 -215v-302h-48v85l-3 -3q-2 -4 -7 -9.5t-11.5 -13t-16.5 -16t-21.5 -17t-26.5 -16t-31 -13t-36 -9t-41 -3.5q-94 0 -146.5 49t-52.5 122q0 70 59.5 114.5t155.5 44.5h177q0 117 -91 148q-28 9 -62.5 9t-63.5 -3.5t-48 -9.5t-31 -11.5
t-21.5 -11.5t-10.5 -6z" />
    <glyph glyph-name="aacute" unicode="&#xe1;" horiz-adv-x="520" 
d="M398 685l-58 23l-92 -126h40zM435 214v55q-18 0 -39.5 0.5t-42 0.5h-50.5q-65 0 -112.5 -8.5t-73.5 -36.5q-10 -10 -16.5 -28t-8.5 -39.5t5.5 -43t23 -39.5t46.5 -29.5t74 -11.5q29 0 53.5 5t42.5 13t33 18t24.5 21.5t16.5 23t11 22t6.5 18.5t3.5 12.5l1 4.5q1 0 2 42z
M87 473q81 44 181 44q213 0 213 -215v-302h-48v85l-3 -3q-2 -4 -7 -9.5t-11.5 -13t-16.5 -16t-21.5 -17t-26.5 -16t-31 -13t-36 -9t-41 -3.5q-94 0 -146.5 49t-52.5 122q0 70 59.5 114.5t155.5 44.5h177q0 117 -91 148q-28 9 -62.5 9t-63.5 -3.5t-48 -9.5t-31 -11.5
t-21.5 -11.5t-10.5 -6z" />
    <glyph glyph-name="acircumflex" unicode="&#xe2;" horiz-adv-x="520" 
d="M248 704h40l100 -122h-47l-74 68l-74 -68h-45zM435 214v55q-18 0 -39.5 0.5t-42 0.5h-50.5q-65 0 -112.5 -8.5t-73.5 -36.5q-10 -10 -16.5 -28t-8.5 -39.5t5.5 -43t23 -39.5t46.5 -29.5t74 -11.5q29 0 53.5 5t42.5 13t33 18t24.5 21.5t16.5 23t11 22t6.5 18.5t3.5 12.5
l1 4.5q1 0 2 42zM87 473q81 44 181 44q213 0 213 -215v-302h-48v85l-3 -3q-2 -4 -7 -9.5t-11.5 -13t-16.5 -16t-21.5 -17t-26.5 -16t-31 -13t-36 -9t-41 -3.5q-94 0 -146.5 49t-52.5 122q0 70 59.5 114.5t155.5 44.5h177q0 117 -91 148q-28 9 -62.5 9t-63.5 -3.5t-48 -9.5
t-31 -11.5t-21.5 -11.5t-10.5 -6z" />
    <glyph glyph-name="atilde" unicode="&#xe3;" horiz-adv-x="520" 
d="M120 591q14 54 34 73.5t50 19.5q14 0 31 -6.5t34.5 -14t33.5 -14t29 -6.5q18 0 28.5 10.5t21.5 39.5l34 -9q-14 -54 -34 -73.5t-50 -19.5q-14 0 -31 6.5t-34.5 14t-33.5 14t-29 6.5q-18 0 -28.5 -10.5t-21.5 -39.5zM435 214v55q-18 0 -39.5 0.5t-42 0.5h-50.5
q-65 0 -112.5 -8.5t-73.5 -36.5q-10 -10 -16.5 -28t-8.5 -39.5t5.5 -43t23 -39.5t46.5 -29.5t74 -11.5q29 0 53.5 5t42.5 13t33 18t24.5 21.5t16.5 23t11 22t6.5 18.5t3.5 12.5l1 4.5q1 0 2 42zM87 473q81 44 181 44q213 0 213 -215v-302h-48v85l-3 -3q-2 -4 -7 -9.5
t-11.5 -13t-16.5 -16t-21.5 -17t-26.5 -16t-31 -13t-36 -9t-41 -3.5q-94 0 -146.5 49t-52.5 122q0 70 59.5 114.5t155.5 44.5h177q0 117 -91 148q-28 9 -62.5 9t-63.5 -3.5t-48 -9.5t-31 -11.5t-21.5 -11.5t-10.5 -6z" />
    <glyph glyph-name="adieresis" unicode="&#xe4;" horiz-adv-x="520" 
d="M152 662h69v-80h-69v80zM315 662h69v-80h-69v80zM435 214v55q-18 0 -39.5 0.5t-42 0.5h-50.5q-65 0 -112.5 -8.5t-73.5 -36.5q-10 -10 -16.5 -28t-8.5 -39.5t5.5 -43t23 -39.5t46.5 -29.5t74 -11.5q29 0 53.5 5t42.5 13t33 18t24.5 21.5t16.5 23t11 22t6.5 18.5t3.5 12.5
l1 4.5q1 0 2 42zM87 473q81 44 181 44q213 0 213 -215v-302h-48v85l-3 -3q-2 -4 -7 -9.5t-11.5 -13t-16.5 -16t-21.5 -17t-26.5 -16t-31 -13t-36 -9t-41 -3.5q-94 0 -146.5 49t-52.5 122q0 70 59.5 114.5t155.5 44.5h177q0 117 -91 148q-28 9 -62.5 9t-63.5 -3.5t-48 -9.5
t-31 -11.5t-21.5 -11.5t-10.5 -6z" />
    <glyph glyph-name="aring" unicode="&#xe5;" horiz-adv-x="520" 
d="M268 626q22 0 40.5 8.5t32 22.5t21 32.5t7.5 38.5v2q0 20 -7.5 38.5t-21 32.5t-32 22.5t-40.5 8.5t-40.5 -8.5t-32 -22.5t-21 -32.5t-7.5 -38.5v-2q0 -20 7.5 -38.5t21 -32.5t32 -22.5t40.5 -8.5zM268 582q-30 0 -57 12t-48 32t-33.5 46.5t-12.5 55.5v2q0 29 12.5 55.5
t33.5 46.5t48 32t57 12t57 -12t48 -32t33.5 -46.5t12.5 -55.5v-2q0 -29 -12.5 -55.5t-33.5 -46.5t-48 -32t-57 -12zM435 214v55q-18 0 -39.5 0.5t-42 0.5h-50.5q-65 0 -112.5 -8.5t-73.5 -36.5q-10 -10 -16.5 -28t-8.5 -39.5t5.5 -43t23 -39.5t46.5 -29.5t74 -11.5
q29 0 53.5 5t42.5 13t33 18t24.5 21.5t16.5 23t11 22t6.5 18.5t3.5 12.5l1 4.5q1 0 2 42zM87 473q81 44 181 44q213 0 213 -215v-302h-48v85l-3 -3q-2 -4 -7 -9.5t-11.5 -13t-16.5 -16t-21.5 -17t-26.5 -16t-31 -13t-36 -9t-41 -3.5q-94 0 -146.5 49t-52.5 122
q0 70 59.5 114.5t155.5 44.5h177q0 117 -91 148q-28 9 -62.5 9t-63.5 -3.5t-48 -9.5t-31 -11.5t-21.5 -11.5t-10.5 -6z" />
    <glyph glyph-name="ae" unicode="&#xe6;" horiz-adv-x="115" 
 />
    <glyph glyph-name="ccedilla" unicode="&#xe7;" horiz-adv-x="478" 
d="M190 -139l90 132h43l-78 -158zM433 79q-20 -16 -45 -27q-39 -18 -84 -18q-44 0 -82.5 17t-67 47t-44.5 70.5t-16 86.5v2q0 45 15.5 85t43 69.5t66 47t83.5 17.5q44 0 82 -17q27 -12 49 -30v59q-12 7 -25 12q-47 22 -104 22t-105 -21.5t-83.5 -58.5t-55 -85t-19.5 -102v-2
q0 -54 19.5 -102t54.5 -84t82.5 -57.5t104.5 -21.5t105 22q13 6 26 13v56zM433 79zM433 23z" />
    <glyph glyph-name="egrave" unicode="&#xe8;" horiz-adv-x="562" 
d="M174 685l58 23l92 -126h-40zM95 235q3 -35 15 -67q16 -40 44.5 -70t67 -47t82.5 -17q45 0 84 18q25 11 45 27v-56q-13 -7 -26 -13q-48 -22 -105 -22t-104.5 21.5t-82.5 57.5t-54.5 84t-19.5 102v2q0 54 19.5 102t55 85t83.5 58.5t105 21.5q24 0 50 -8t56.5 -29t54 -51.5
t39 -82.5t14.5 -116h-423zM302 476q-45 0 -83.5 -17.5t-66 -47t-42.5 -69.5q-12 -30 -15 -63h372q-1 19 -15 67q-10 32 -26 56.5t-30 37t-34 21t-29.5 10.5t-24.5 4q-4 1 -6 1z" />
    <glyph glyph-name="eacute" unicode="&#xe9;" horiz-adv-x="562" 
d="M434 685l-58 23l-92 -126h40zM95 235q3 -35 15 -67q16 -40 44.5 -70t67 -47t82.5 -17q45 0 84 18q25 11 45 27v-56q-13 -7 -26 -13q-48 -22 -105 -22t-104.5 21.5t-82.5 57.5t-54.5 84t-19.5 102v2q0 54 19.5 102t55 85t83.5 58.5t105 21.5q24 0 50 -8t56.5 -29t54 -51.5
t39 -82.5t14.5 -116h-423zM302 476q-45 0 -83.5 -17.5t-66 -47t-42.5 -69.5q-12 -30 -15 -63h372q-1 19 -15 67q-10 32 -26 56.5t-30 37t-34 21t-29.5 10.5t-24.5 4q-4 1 -6 1z" />
    <glyph glyph-name="ecircumflex" unicode="&#xea;" horiz-adv-x="562" 
d="M284 704h40l100 -122h-47l-74 68l-74 -68h-45zM95 235q3 -35 15 -67q16 -40 44.5 -70t67 -47t82.5 -17q45 0 84 18q25 11 45 27v-56q-13 -7 -26 -13q-48 -22 -105 -22t-104.5 21.5t-82.5 57.5t-54.5 84t-19.5 102v2q0 54 19.5 102t55 85t83.5 58.5t105 21.5q24 0 50 -8
t56.5 -29t54 -51.5t39 -82.5t14.5 -116h-423zM302 476q-45 0 -83.5 -17.5t-66 -47t-42.5 -69.5q-12 -30 -15 -63h372q-1 19 -15 67q-10 32 -26 56.5t-30 37t-34 21t-29.5 10.5t-24.5 4q-4 1 -6 1z" />
    <glyph glyph-name="edieresis" unicode="&#xeb;" horiz-adv-x="562" 
d="M188 662h69v-80h-69v80zM351 662h69v-80h-69v80zM95 235q3 -35 15 -67q16 -40 44.5 -70t67 -47t82.5 -17q45 0 84 18q25 11 45 27v-56q-13 -7 -26 -13q-48 -22 -105 -22t-104.5 21.5t-82.5 57.5t-54.5 84t-19.5 102v2q0 54 19.5 102t55 85t83.5 58.5t105 21.5q24 0 50 -8
t56.5 -29t54 -51.5t39 -82.5t14.5 -116h-423zM302 476q-45 0 -83.5 -17.5t-66 -47t-42.5 -69.5q-12 -30 -15 -63h372q-1 19 -15 67q-10 32 -26 56.5t-30 37t-34 21t-29.5 10.5t-24.5 4q-4 1 -6 1z" />
    <glyph glyph-name="igrave" unicode="&#xec;" horiz-adv-x="147" 
d="M-58 685l58 23l92 -126h-40zM97 415v95h-49v-510h49v415z" />
    <glyph glyph-name="iacute" unicode="&#xed;" horiz-adv-x="147" 
d="M202 685l-58 23l-92 -126h40zM97 415v95h-49v-510h49v415z" />
    <glyph glyph-name="icircumflex" unicode="&#xee;" horiz-adv-x="147" 
d="M52 704h40l100 -122h-47l-74 68l-74 -68h-45zM97 415v95h-49v-510h49v415z" />
    <glyph glyph-name="idieresis" unicode="&#xef;" horiz-adv-x="147" 
d="M-44 662h69v-80h-69v80zM119 662h69v-80h-69v80zM97 415v95h-49v-510h49v415z" />
    <glyph glyph-name="eth" unicode="&#xf0;" horiz-adv-x="115" 
 />
    <glyph glyph-name="ntilde" unicode="&#xf1;" horiz-adv-x="534" 
d="M119 591q14 54 34 73.5t50 19.5q14 0 31 -6.5t34.5 -14t33.5 -14t29 -6.5q18 0 28.5 10.5t21.5 39.5l34 -9q-14 -54 -34 -73.5t-50 -19.5q-14 0 -31 6.5t-34.5 14t-33.5 14t-29 6.5q-18 0 -28.5 -10.5t-21.5 -39.5zM98 345q49 131 164 131q174 -2 174 -196v-280h49v300
q0 106 -55 164t-160 58q-110 0 -172 -99v87h-49v-510h49v345z" />
    <glyph glyph-name="ograve" unicode="&#xf2;" horiz-adv-x="609" 
d="M174 685l58 23l92 -126h-40zM304 34q45 0 83.5 17.5t66 47t43 69.5t15.5 85v2q0 46 -16 86.5t-44.5 70.5t-67 47t-82.5 17q-45 0 -83.5 -17.5t-66 -47t-43 -69.5t-15.5 -85v-2q0 -46 16 -86.5t44.5 -70.5t67 -47t82.5 -17zM302 -12q-57 0 -104.5 21.5t-82.5 57.5
t-54.5 84t-19.5 102v2q0 54 19.5 102t55 85t83.5 58.5t105 21.5t104.5 -21.5t82.5 -57.5t54.5 -84t19.5 -102v-2q0 -54 -19.5 -102t-55 -85t-83.5 -58.5t-105 -21.5z" />
    <glyph glyph-name="oacute" unicode="&#xf3;" horiz-adv-x="609" 
d="M434 685l-58 23l-92 -126h40zM304 34q45 0 83.5 17.5t66 47t43 69.5t15.5 85v2q0 46 -16 86.5t-44.5 70.5t-67 47t-82.5 17q-45 0 -83.5 -17.5t-66 -47t-43 -69.5t-15.5 -85v-2q0 -46 16 -86.5t44.5 -70.5t67 -47t82.5 -17zM302 -12q-57 0 -104.5 21.5t-82.5 57.5
t-54.5 84t-19.5 102v2q0 54 19.5 102t55 85t83.5 58.5t105 21.5t104.5 -21.5t82.5 -57.5t54.5 -84t19.5 -102v-2q0 -54 -19.5 -102t-55 -85t-83.5 -58.5t-105 -21.5z" />
    <glyph glyph-name="ocircumflex" unicode="&#xf4;" horiz-adv-x="609" 
d="M284 704h40l100 -122h-47l-74 68l-74 -68h-45zM304 34q45 0 83.5 17.5t66 47t43 69.5t15.5 85v2q0 46 -16 86.5t-44.5 70.5t-67 47t-82.5 17q-45 0 -83.5 -17.5t-66 -47t-43 -69.5t-15.5 -85v-2q0 -46 16 -86.5t44.5 -70.5t67 -47t82.5 -17zM302 -12q-57 0 -104.5 21.5
t-82.5 57.5t-54.5 84t-19.5 102v2q0 54 19.5 102t55 85t83.5 58.5t105 21.5t104.5 -21.5t82.5 -57.5t54.5 -84t19.5 -102v-2q0 -54 -19.5 -102t-55 -85t-83.5 -58.5t-105 -21.5z" />
    <glyph glyph-name="otilde" unicode="&#xf5;" horiz-adv-x="609" 
d="M156 591q14 54 34 73.5t50 19.5q14 0 31 -6.5t34.5 -14t33.5 -14t29 -6.5q18 0 28.5 10.5t21.5 39.5l34 -9q-14 -54 -34 -73.5t-50 -19.5q-14 0 -31 6.5t-34.5 14t-33.5 14t-29 6.5q-18 0 -28.5 -10.5t-21.5 -39.5zM304 34q45 0 83.5 17.5t66 47t43 69.5t15.5 85v2
q0 46 -16 86.5t-44.5 70.5t-67 47t-82.5 17q-45 0 -83.5 -17.5t-66 -47t-43 -69.5t-15.5 -85v-2q0 -46 16 -86.5t44.5 -70.5t67 -47t82.5 -17zM302 -12q-57 0 -104.5 21.5t-82.5 57.5t-54.5 84t-19.5 102v2q0 54 19.5 102t55 85t83.5 58.5t105 21.5t104.5 -21.5t82.5 -57.5
t54.5 -84t19.5 -102v-2q0 -54 -19.5 -102t-55 -85t-83.5 -58.5t-105 -21.5z" />
    <glyph glyph-name="odieresis" unicode="&#xf6;" horiz-adv-x="609" 
d="M188 662h69v-80h-69v80zM351 662h69v-80h-69v80zM304 34q45 0 83.5 17.5t66 47t43 69.5t15.5 85v2q0 46 -16 86.5t-44.5 70.5t-67 47t-82.5 17q-45 0 -83.5 -17.5t-66 -47t-43 -69.5t-15.5 -85v-2q0 -46 16 -86.5t44.5 -70.5t67 -47t82.5 -17zM302 -12q-57 0 -104.5 21.5
t-82.5 57.5t-54.5 84t-19.5 102v2q0 54 19.5 102t55 85t83.5 58.5t105 21.5t104.5 -21.5t82.5 -57.5t54.5 -84t19.5 -102v-2q0 -54 -19.5 -102t-55 -85t-83.5 -58.5t-105 -21.5z" />
    <glyph glyph-name="divide" unicode="&#xf7;" horiz-adv-x="115" 
 />
    <glyph glyph-name="oslash" unicode="&#xf8;" horiz-adv-x="115" 
 />
    <glyph glyph-name="ugrave" unicode="&#xf9;" horiz-adv-x="531" 
d="M133 685l58 23l92 -126h-40zM432 165q-49 -131 -164 -131q-174 2 -174 196v280h-49v-300q0 -106 55 -164t160 -58q110 0 172 99v-87h49v510h-49v-345z" />
    <glyph glyph-name="uacute" unicode="&#xfa;" horiz-adv-x="531" 
d="M393 685l-58 23l-92 -126h40zM432 165q-49 -131 -164 -131q-174 2 -174 196v280h-49v-300q0 -106 55 -164t160 -58q110 0 172 99v-87h49v510h-49v-345z" />
    <glyph glyph-name="ucircumflex" unicode="&#xfb;" horiz-adv-x="531" 
d="M243 704h40l100 -122h-47l-74 68l-74 -68h-45zM432 165q-49 -131 -164 -131q-174 2 -174 196v280h-49v-300q0 -106 55 -164t160 -58q110 0 172 99v-87h49v510h-49v-345z" />
    <glyph glyph-name="udieresis" unicode="&#xfc;" horiz-adv-x="531" 
d="M147 662h69v-80h-69v80zM310 662h69v-80h-69v80zM432 165q-49 -131 -164 -131q-174 2 -174 196v280h-49v-300q0 -106 55 -164t160 -58q110 0 172 99v-87h49v510h-49v-345z" />
    <glyph glyph-name="yacute" unicode="&#xfd;" horiz-adv-x="577" 
d="M418 685l-58 23l-92 -126h40zM69 -147q49 -16 90 -16q52 1 97.5 43.5t67.5 115.5l217 514h-56l-184 -454l-210 454h-57l246 -508q-1 -1 -6.5 -15t-9.5 -22t-11.5 -22.5t-16 -23t-19.5 -18.5t-24.5 -14.5t-28.5 -4.5q-54 0 -95 18v-47z" />
    <glyph glyph-name="thorn" unicode="&#xfe;" horiz-adv-x="115" 
 />
    <glyph glyph-name="ydieresis" unicode="&#xff;" horiz-adv-x="577" 
d="M171 662h69v-80h-69v80zM334 662h69v-80h-69v80zM69 -147q49 -16 90 -16q52 1 97.5 43.5t67.5 115.5l217 514h-56l-184 -454l-210 454h-57l246 -508q-1 -1 -6.5 -15t-9.5 -22t-11.5 -22.5t-16 -23t-19.5 -18.5t-24.5 -14.5t-28.5 -4.5q-54 0 -95 18v-47z" />
    <glyph glyph-name="idotless" unicode="&#x131;" horiz-adv-x="147" 
d="M97 415v95h-49v-510h49v415z" />
    <glyph glyph-name="caron" unicode="&#x2c7;" horiz-adv-x="328" 
d="M144 624h40l100 122h-47l-74 -68l-74 68h-45z" />
    <glyph glyph-name="ring" unicode="&#x2da;" 
d="M0 104q22 0 40.5 8.5t32 22.5t21 32.5t7.5 38.5v2q0 20 -7.5 38.5t-21 32.5t-32 22.5t-40.5 8.5t-40.5 -8.5t-32 -22.5t-21 -32.5t-7.5 -38.5v-2q0 -20 7.5 -38.5t21 -32.5t32 -22.5t40.5 -8.5zM0 60q-30 0 -57 12t-48 32t-33.5 46.5t-12.5 55.5v2q0 29 12.5 55.5
t33.5 46.5t48 32t57 12t57 -12t48 -32t33.5 -46.5t12.5 -55.5v-2q0 -29 -12.5 -55.5t-33.5 -46.5t-48 -32t-57 -12z" />
    </font>
</defs>
</svg>
